<?xml version="1.0" encoding="utf-8"?>
<!-- Generator: Adobe Illustrator 19.2.1, SVG Export Plug-In . SVG Version: 6.00 Build 0)  -->
<svg version="1.1" id="Layer_1" xmlns="http://www.w3.org/2000/svg" xmlns:xlink="http://www.w3.org/1999/xlink" x="0px" y="0px"
	 viewBox="0 0 1000 1000" style="enable-background:new 0 0 1000 1000;" xml:space="preserve">
<g>
	<path d="M334.6,209.7c39.1,0,76.8,4.9,113.2,17.4c41.5,14.3,76.9,37.2,102.1,73.9c18.2,26.6,29,55.9,33,87.9
		c0.7,5.4,0.8,11,1.7,16.4c0.5,3.2-0.5,4-3.5,4.2c-15.4,1.1-30.9,2.4-46.3,3.5c-10,0.8-20,1-29.9,2.3c-4.8,0.6-5.5-1.3-6-5.1
		c-1.6-14.8-5.2-29.1-10.9-42.9c-14.8-35.9-41.2-58.9-78.1-70.2c-27.6-8.5-55.9-10.1-84.5-9.4c-25.6,0.6-50.9,3.4-75,12.6
		c-27.6,10.4-49.2,28.1-60.6,55.9c-14.8,36.1-4,80.8,35.2,101.2c23.8,12.3,49.3,19.7,75,26.7c40.3,10.9,81.4,18.7,121.5,30
		c23.8,6.7,47.7,13.4,70.3,23.8c29.2,13.4,55.1,31.4,76.5,55.7c10.6,12,23.1,22,36.4,31.1c17.9,12.2,36.7,15.2,57.3,8.5
		c24.7-8.1,45.7-20.8,56.9-45.6c4.5-9.9,6.7-20.5,9.9-30.8c3.5-11.4,6.7-22.9,10-34.5c0.7-2.4,1.8-4,4.1-5.2
		c11.6-5.8,23.1-11.8,34.6-17.6c1.4-0.7,2.9-2.5,4.9-0.5c1.6,1.6,1.2,3.1,0.8,5c-4.6,20.9-7.6,42.1-5.7,63.4
		c2.6,29.5,20.1,49.6,48.7,57.6c12,3.3,24.2,4.7,36.5,2.1c16.9-3.6,25-14,24-31.3c-1.5-26.4-8.8-51.7-16.3-76.9
		c-1.6-5.4-5.2-11-4.5-16.1c0.7-4.9,7.2-7.8,10.6-12.1c2.8-3.6,6.1-4.8,10.7-4.7c15.2,0.3,30.3,0.1,45.5,0.1c1.8,0,3.7-0.8,4.2,2.5
		c4.2,26.3,9.3,52.9,6.4,79.4c-4.7,43.2-20.8,81.8-53.8,111.6c-32,28.9-73.1,33.6-112.7,13.8c-15.9-7.9-29.7-18.5-41-32.1
		c-3.3-4-4.5-2.8-7.2,0.3c-20.5,24.9-46.2,41.8-77.9,49c-14.4,3.3-29,4.1-43.7,3.4c-2.7-0.1-3.2,0.6-3.6,3.1
		c-8.5,69.8-45.6,119.6-107.2,151.9c-34.8,18.3-72.3,27.5-111.4,30.1c-48.9,3.1-97.2-0.1-144.6-13.1c-48.5-13.3-90.1-37.9-121.3-78
		c-21.9-28.2-36-60-42.4-95.2c-2-11.2-3.1-22.4-4-33.7c-0.3-3.5,0.1-5,4.5-5.3c24.7-1.9,49.4-4.2,74.1-6.6c3.7-0.4,5,0.3,5.5,4.4
		c3.5,28.2,11.2,55.1,27.6,78.8c17.1,24.6,41.3,40.2,68.4,51.7c38.5,16.3,78.9,20.8,120.3,18.4c29.9-1.8,58.6-8,85.5-21.5
		c29.2-14.7,50.2-36.8,57.9-69.2c9.7-40.5-5.7-77-41.1-99.4c-21.6-13.7-45.7-21.3-70-28.3c-41.4-11.8-83.6-20.5-125.1-32
		c-29-8-58-16.2-85-29.9c-24.9-12.6-47.2-28.7-64.7-50.8c-22.4-28.4-32.8-61-32.3-97c0.6-47.6,18.4-88.1,52.2-121.5
		c21-20.8,46.5-34.2,74.1-43.8C260.6,214.6,297.6,209.3,334.6,209.7z"/>
	<path d="M757.7,397.5c16.2-19.7,33.6-38.1,52.2-55.3c1.7-1.6,2.9-1.3,4.7-0.1c26.2,18.1,50.3,38.8,73.5,60.5
		c1.7,1.6,1.9,2.5,0.3,4.4c-14.6,18-29.5,35.7-47.4,50.5c-1.6,1.3-2.7,3-5.3,0.8c-24.9-20.9-50.5-40.8-76.8-59.8
		C758.6,398.3,758.3,398,757.7,397.5z"/>
	<path d="M795,284.9c-0.6,0.7-1,1.4-1.5,2c-14.5,18.3-29.7,35.8-47.6,51c-2.1,1.8-3.4,2.1-5.7,0.1c-24.1-20.2-48.8-39.6-74.4-57.9
		c-2.8-2-2.6-3.2-0.6-5.6c15.4-18,31.5-35.2,48.8-51.3c1.9-1.8,3.2-2.6,5.8-0.8c26,18.1,50,38.6,73.1,60.2
		C793.5,283.3,794.1,284,795,284.9z"/>
	<path d="M680.5,348.8c0.8,0.5,1.8,1.1,2.7,1.7c25.9,17.9,49.8,38.3,72.7,59.9c2,1.9,1.7,2.9,0.2,4.7
		c-14.4,17.7-29.1,35.1-46.6,49.9c-2.8,2.4-4.4,2.5-7.4,0c-23.7-19.9-48.1-38.9-73.2-57c-2.2-1.6-3.8-2.5-1.2-5.5
		c15.4-18.1,31.8-35.4,49.2-51.6C678,350,678.6,348.6,680.5,348.8z"/>
</g>
</svg>
